<svg xmlns="http://www.w3.org/2000/svg" xmlns:xlink="http://www.w3.org/1999/xlink" viewBox="0 0 610.57 557.4"><defs><style>.cls-1{fill:#34426a;stroke:#010025;stroke-width:14px;}.cls-1,.cls-10,.cls-2,.cls-7,.cls-8,.cls-9{stroke-linecap:round;stroke-linejoin:round;}.cls-10,.cls-2,.cls-4,.cls-8{fill:none;}.cls-2{stroke:#f5fcff;stroke-width:6px;}.cls-3{stroke:#000;fill:url(#未命名的渐变_19);}.cls-3,.cls-4{stroke-linejoin:bevel;stroke-width:11px;}.cls-4{stroke:#10949e;}.cls-5{fill:#d6f7fd;}.cls-6{fill:#fbcac6;}.cls-7{fill:#26449d;}.cls-7,.cls-8{stroke:#26449d;}.cls-8{stroke-width:8px;}.cls-9{fill:#c04f54;stroke:#7c1a3e;}.cls-10,.cls-9{stroke-width:10px;}.cls-10{stroke:#ba445a;}</style><linearGradient id="未命名的渐变_19" x1="982.87" y1="671.1" x2="965.02" y2="160.14" gradientUnits="userSpaceOnUse"><stop offset="0.62" stop-color="#fff"/><stop offset="0.73" stop-color="#b2deeb"/><stop offset="1" stop-color="#abdbe9"/></linearGradient></defs><g id="图层_4" data-name="图层 4"><path class="cls-1" d="M797,425c-106.5-69.5,77.69-197.62,204.5-193.5,148.75,4.84,274,161,193.5,252.5C1129,559,887.05,483.76,797,425Z" transform="translate(-674.58 -115)"/><ellipse class="cls-2" cx="1190" cy="388" rx="7" ry="12" transform="translate(-571.56 893.59) rotate(-47.78)"/><path class="cls-2" d="M1163.46,395.59c-2.09,18.82,10.14,23.22,28.54,21.41" transform="translate(-674.58 -115)"/><line class="cls-2" x1="492.88" y1="296.19" x2="510.42" y2="278"/></g><g id="图层_2" data-name="图层 2"><path class="cls-3" d="M871.37,359c-87-36,23-202,59.5-197.5,22.5-2.5-26.5,104.5-12,163,14.5-4.5,99-20.6,108.5,2.5,50-79,32-155,54-160,2-9,92,48,12.5,191.5,76.5,25.5,96.67,153.09,134.5,220.5,8.82,15.72,23-12,33-10,6.43-.86,44,52-12,76-8.79,3.54-24.38,9.54-45.59-1.53-7.44-3.89-15.43-7.83-26.41-7.47-29.57.31-60.59,37.11-80,30-55.23-20.25-74-41-149-9-46.18-4-55.3-79.9-125.3-32.93-8.18,5.49-14.1,12.6-23.7,17.93-20.34,8-14.15-22.73-33-13-43.73,24.35-119.74-63.07-70-92,13.84,5.57,44.42,24.63,67.5-13.5,6-18.89,9.5-50.5,29.5-100.5C813.37,387,842.24,356.74,871.37,359Z" transform="translate(-674.58 -115)"/><path class="cls-4" d="M1268.55,575c11,14.43,24.83,51.12-19.18,70-8.79,3.54-24.38,9.54-45.59-1.53-7.44-3.89-15.43-7.83-26.41-7.47-29.57.31-60.59,37.11-80,30-55.23-20.25-74-41-149-9-46.18-4-55.3-79.9-125.3-32.93-8.18,5.49-14.1,12.6-23.7,17.93-20.34,8-14.15-22.73-33-13-42.31,23.56-114.84-57.51-74.45-89" transform="translate(-674.58 -115)"/><circle class="cls-5" cx="269.42" cy="10" r="10"/><circle class="cls-5" cx="409.42" cy="16" r="10"/></g><g id="图层_3" data-name="图层 3"><path class="cls-6" d="M876.2,480.8c-1.2.2-31.33,8.48-49.32,4.3C821,484,815,482,812,477c-3.31-5-3.88-12.65-3.41-19.12a19.8,19.8,0,0,1,4.81-11.75A21.15,21.15,0,0,1,822,440c19-7,37-8,50-6,6,1,12,3,16,9s5,23,2,28C886,478,877.41,480.61,876.2,480.8Z" transform="translate(-674.58 -115)"/><path class="cls-7" d="M862.72,438.46a203.83,203.83,0,0,1,33.78-9,4.32,4.32,0,0,1,4.55,2.06,48,48,0,0,1,6,7.86,4.43,4.43,0,0,1-2,6.86c-11.56,4.91-23.07,9.7-33.74,12.16a4.42,4.42,0,0,1-5.43-2.11,33.69,33.69,0,0,1-6-11.52A4.44,4.44,0,0,1,862.72,438.46Z" transform="translate(-674.58 -115)"/><path class="cls-6" d="M1111.17,507.4c-1.21-.16-32.45-.79-48.51-9.91-5.33-2.72-10.21-6.84-11.66-12.49-1.75-5.67-.44-12.67,1.83-18.73a20,20,0,0,1,8.05-10,21,21,0,0,1,9.92-3.38,101.17,101.17,0,0,1,49.36,9.42c6.43,2.95,10.93,5.33,13.06,12.22s-1.74,23.47-6,27.41C1121.36,507.49,1112.37,507.55,1111.17,507.4Z" transform="translate(-674.58 -115)"/><path class="cls-7" d="M1044.25,437.06a197.06,197.06,0,0,1,31.31,14.11,4.19,4.19,0,0,1,2.14,4.42,47.16,47.16,0,0,1-.45,9.81,4.48,4.48,0,0,1-5.9,4c-11.89-3.41-23.66-6.89-33.31-11.62a4.29,4.29,0,0,1-2.76-5,33.55,33.55,0,0,1,2.78-12.62A4.46,4.46,0,0,1,1044.25,437.06Z" transform="translate(-674.58 -115)"/><path class="cls-8" d="M948.33,469.68q21.9,28,43.78,0" transform="translate(-674.58 -115)"/><path class="cls-9" d="M966.5,516.5c-27.5,11.5-41-2-69.5,56.5,46.5,8.5,77.5-12.5,69.5-56.5,10,63,53.17,72.44,81,50C998.5,540.5,1024,513,966.5,516.5Z" transform="translate(-674.58 -115)"/><path class="cls-9" d="M963,362" transform="translate(-674.58 -115)"/><path class="cls-10" d="M921,334c0,15.42,27,29,42.5,24.5" transform="translate(-674.58 -115)"/><path class="cls-10" d="M1006.86,362.33c11.14.67,26.77-13.15,23.75-28.28" transform="translate(-674.58 -115)"/><path class="cls-9" d="M920,329" transform="translate(-674.58 -115)"/><path class="cls-9" d="M969,318" transform="translate(-674.58 -115)"/></g></svg>